<?xml version="1.0" standalone="no"?>
<!DOCTYPE svg PUBLIC "-//W3C//DTD SVG 20010904//EN"
 "http://www.w3.org/TR/2001/REC-SVG-20010904/DTD/svg10.dtd">
<svg version="1.0" xmlns="http://www.w3.org/2000/svg"
 width="256.000000pt" height="256.000000pt" viewBox="0 0 256.000000 256.000000"
 preserveAspectRatio="xMidYMid meet">

<g transform="translate(0.000000,256.000000) scale(0.100000,-0.100000)"
fill="#000000" stroke="none">
<path d="M2147 2432 c-15 -9 -36 -35 -47 -57 -10 -22 -75 -249 -144 -505 -69
-256 -144 -532 -166 -615 -140 -512 -162 -630 -131 -703 15 -36 55 -62 95 -62
36 0 91 52 120 113 27 57 75 220 161 547 31 118 113 426 182 684 89 334 123
479 120 503 -4 23 -2 33 7 33 18 0 56 -43 56 -64 0 -10 -45 -186 -101 -393
-98 -366 -105 -405 -67 -391 8 3 55 165 117 396 96 359 103 393 91 422 -17 40
-53 68 -99 76 -20 3 -53 12 -74 20 -49 18 -86 17 -120 -4z m120 -54 c15 -14
23 -33 23 -55 0 -24 -244 -966 -254 -980 -4 -6 -156 42 -156 50 0 6 57 223
127 484 97 364 132 480 149 499 29 31 79 32 111 2z m-314 -1063 c37 -10 67
-22 67 -26 0 -5 -36 -142 -80 -306 -80 -298 -123 -413 -161 -434 -30 -16 -62
-7 -77 21 -24 45 -6 147 77 458 45 165 81 303 81 307 0 4 6 5 13 3 6 -3 42
-13 80 -23z"/>
<path d="M595 2178 l-220 -223 5 -888 c4 -775 7 -889 20 -897 9 -6 333 -10
827 -10 800 0 813 0 833 20 19 19 20 33 20 373 0 193 -4 358 -9 366 -5 8 -16
11 -25 8 -14 -6 -16 -45 -16 -362 l0 -355 -805 0 -805 0 0 855 0 855 193 0
c253 0 237 -12 237 169 0 109 -3 140 -14 144 -29 11 -36 -17 -36 -140 l0 -123
-167 0 -166 0 128 131 c71 72 157 158 190 190 l62 59 584 2 c576 3 584 3 584
23 0 20 -8 20 -600 23 l-600 2 -220 -222z"/>
<path d="M540 1680 c0 -19 7 -20 180 -20 173 0 180 1 180 20 0 19 -7 20 -180
20 -173 0 -180 -1 -180 -20z"/>
<path d="M965 1690 c-16 -27 16 -30 291 -30 277 0 284 0 284 20 0 20 -7 20
-284 20 -179 0 -287 -4 -291 -10z"/>
<path d="M1605 1689 c-14 -22 14 -30 106 -27 76 2 94 6 94 18 0 12 -19 16 -97
18 -63 2 -99 -1 -103 -9z"/>
<path d="M540 1520 c0 -20 4 -20 368 -18 318 3 367 5 367 18 0 13 -49 15 -367
18 -364 2 -368 2 -368 -18z"/>
<path d="M1340 1520 c0 -20 4 -20 208 -18 176 3 207 5 207 18 0 13 -31 15
-207 18 -204 2 -208 2 -208 -18z"/>
<path d="M540 1360 c0 -19 7 -20 100 -20 93 0 100 1 100 20 0 19 -7 20 -100
20 -93 0 -100 -1 -100 -20z"/>
<path d="M805 1369 c-4 -6 -3 -15 2 -20 5 -5 148 -8 344 -7 289 3 334 5 334
18 0 13 -45 15 -337 18 -237 1 -339 -1 -343 -9z"/>
<path d="M1555 1370 c-13 -21 9 -30 76 -30 62 0 69 2 69 20 0 18 -7 20 -69 20
-39 0 -73 -4 -76 -10z"/>
<path d="M540 1200 c0 -20 4 -20 393 -18 341 3 392 5 392 18 0 13 -51 15 -392
18 -389 2 -393 2 -393 -18z"/>
<path d="M975 787 c-41 -41 -54 -84 -64 -218 -8 -100 -20 -145 -45 -161 -6 -4
-30 -8 -54 -8 -59 0 -92 33 -92 92 0 53 21 85 63 96 22 6 32 14 32 27 0 26
-27 30 -67 10 -69 -33 -94 -110 -63 -191 15 -39 25 -49 63 -66 87 -39 170 -8
192 71 6 20 14 84 19 143 11 128 29 173 76 188 84 28 102 -54 40 -189 -19 -43
-40 -101 -46 -129 -11 -44 -10 -54 5 -76 11 -18 25 -26 44 -26 31 0 55 22 96
88 19 30 33 42 50 42 28 0 43 -16 76 -84 32 -65 57 -78 136 -70 47 5 70 2 98
-11 65 -31 89 2 28 38 -23 14 -54 19 -114 20 l-83 2 -32 60 c-17 33 -41 68
-53 77 -48 39 -111 14 -155 -61 -16 -28 -36 -51 -43 -51 -22 0 -10 56 33 149
76 170 56 271 -56 271 -44 0 -55 -4 -84 -33z"/>
<path d="M1680 420 c-18 -34 -18 -105 0 -105 17 0 43 68 38 99 -4 28 -25 31
-38 6z"/>
</g>
</svg>
